<svg xmlns="http://www.w3.org/2000/svg" version="1.0" width="600.000000pt" height="310.000000pt" viewBox="0 0 600.000000 310.000000" preserveAspectRatio="xMidYMid meet">
<metadata fill="#ffffff">
Created by potrace 1.16, written by Peter Selinger 2001-2019
</metadata>
<g transform="translate(0.000000,310.000000) scale(0.100000,-0.100000)" fill="#ffffff" stroke="none">
<path d="M887 2399 c-81 -28 -177 -90 -235 -153 -103 -113 -163 -288 -148 -428 12 -106 6 -103 208 -102 161 0 182 3 296 32 235 60 417 150 540 266 23 22 42 47 42 56 0 28 -69 132 -123 188 -63 64 -140 113 -224 141 -87 29 -272 29 -356 0z m43 -234 c14 -14 31 -25 36 -25 13 0 69 -58 63 -65 -10 -9 -220 -17 -284 -10 -75 8 -82 20 -36 66 19 19 40 29 59 29 16 0 40 9 53 20 30 25 73 19 109 -15z" fill="#ffffff"/>
<path d="M1867 2370 c-36 -31 -36 -31 -99 -20 -35 6 -73 14 -85 17 -42 10 -24 -16 32 -48 62 -35 66 -48 30 -101 -19 -29 -33 -38 -67 -43 l-42 -7 30 -22 c16 -11 39 -31 50 -43 30 -32 38 -29 31 11 -5 31 -1 39 39 75 24 23 46 41 48 41 3 0 25 -26 48 -57 39 -53 43 -56 46 -33 1 14 -6 50 -17 82 l-19 56 28 39 c39 53 42 77 8 81 -18 2 -37 -6 -61 -28z" fill="#ffffff"/>
<path d="M3593 2262 c-12 -2 -36 -19 -53 -38 -25 -29 -30 -43 -30 -84 0 -157 230 -173 247 -17 6 50 -14 99 -50 121 -24 15 -80 24 -114 18z" fill="#ffffff"/>
<path d="M4462 2160 c-18 -4 -35 -10 -38 -13 -3 -2 -8 -59 -11 -126 -3 -66 -7 -121 -9 -121 -2 0 -27 10 -56 22 -122 50 -281 16 -369 -79 -67 -73 -93 -142 -93 -248 -1 -126 19 -180 98 -260 54 -56 71 -66 135 -85 98 -30 169 -24 264 23 l71 35 39 -33 c46 -39 82 -50 142 -41 62 10 79 33 71 97 -8 62 -21 89 -42 89 -29 0 -34 53 -34 333 0 155 -3 312 -7 350 l-6 67 -61 -1 c-34 -1 -76 -5 -94 -9z m-127 -410 c55 -20 95 -92 95 -169 0 -87 -81 -171 -164 -171 -110 0 -193 112 -165 224 27 107 126 156 234 116z" fill="#ffffff"/>
<path d="M1600 1962 c0 -5 -26 -49 -59 -98 -107 -163 -252 -299 -441 -413 -85 -52 -263 -141 -310 -156 -48 -14 -52 -24 -28 -64 35 -57 215 -298 260 -347 40 -43 42 -44 61 -27 37 34 187 231 279 369 168 249 254 447 265 608 6 86 0 136 -17 136 -6 0 -10 -4 -10 -8z" fill="#ffffff"/>
<path d="M1997 1939 c-181 -43 -288 -214 -243 -390 29 -113 104 -190 218 -224 68 -21 191 -16 252 10 49 21 62 10 46 -39 -38 -116 -237 -138 -367 -40 -17 13 -39 24 -47 24 -16 0 -86 -85 -86 -105 0 -17 61 -70 108 -94 61 -31 142 -44 243 -39 111 6 186 31 247 84 93 79 112 152 112 429 0 187 4 205 41 205 19 0 24 11 38 85 12 65 3 80 -58 95 -62 15 -98 7 -152 -32 l-42 -30 -56 26 c-93 43 -172 54 -254 35z m210 -175 c44 -33 63 -66 69 -119 4 -40 1 -59 -18 -94 -34 -66 -67 -86 -142 -86 -53 0 -68 4 -99 28 -49 37 -74 113 -58 173 14 52 45 92 85 110 42 20 130 13 163 -12z" fill="#ffffff"/>
<path d="M2645 1935 c-22 -8 -42 -15 -44 -15 -8 0 9 -121 19 -140 6 -11 19 -20 29 -20 24 0 31 -26 31 -130 1 -225 41 -315 165 -372 39 -18 68 -23 130 -23 71 0 88 4 144 33 64 32 65 32 85 13 51 -48 129 -62 193 -36 l36 15 -5 65 c-6 70 -19 95 -49 95 -11 0 -20 1 -21 3 -1 1 -4 115 -7 252 l-6 250 -100 0 -100 0 -5 -215 c-6 -242 -10 -259 -78 -287 -64 -27 -131 -2 -154 57 -5 14 -13 102 -17 197 -6 153 -9 175 -27 200 -46 61 -142 87 -219 58z" fill="#ffffff"/>
<path d="M5030 1932 c-65 -17 -135 -59 -177 -103 -12 -13 -34 -51 -50 -84 -25 -53 -28 -72 -28 -155 0 -88 3 -101 33 -163 39 -79 100 -133 189 -168 78 -30 223 -33 303 -5 72 25 160 83 160 106 0 9 -20 36 -44 58 l-45 41 -66 -34 c-54 -29 -78 -35 -126 -35 -94 0 -163 37 -190 102 -10 25 -10 31 2 39 8 5 123 9 256 9 l243 0 6 25 c10 40 -5 127 -32 186 -70 152 -257 230 -434 181z m194 -158 c32 -20 66 -74 66 -103 0 -21 -3 -21 -154 -21 -85 0 -157 4 -160 9 -3 5 5 28 17 52 43 81 156 113 231 63z" fill="#ffffff"/>
<path d="M3537 1924 c-4 -4 -7 -133 -7 -286 0 -298 1 -308 52 -355 54 -51 135 -66 203 -37 l38 15 -6 65 c-5 69 -18 94 -48 94 -11 0 -20 1 -21 3 -1 1 -5 115 -8 252 l-5 250 -95 3 c-53 1 -99 0 -103 -4z" fill="#ffffff"/>
</g>
</svg>